<svg width="22" height="22" viewBox="0 0 22 22" fill="none" xmlns="http://www.w3.org/2000/svg">
<path d="M4.58325 19.5815L10.9873 4.5376" stroke="black" stroke-width="0.956522" stroke-linecap="round"/>
<path d="M17.875 19.582L11.4707 4.53809" stroke="black" stroke-width="0.956522" stroke-linecap="round"/>
<path d="M7.06067 14.8589L16.9086 18.3631" stroke="black" stroke-width="0.956522" stroke-linecap="round"/>
<path d="M15.3981 14.8547L5.55017 18.3589" stroke="black" stroke-width="0.956522" stroke-linecap="round"/>
<path d="M8.31006 11.8936L15.1257 14.3188" stroke="black" stroke-width="0.956522" stroke-linecap="round"/>
<path d="M9.56519 8.60864L13.8695 11.4782" stroke="black" stroke-width="0.956522" stroke-linecap="round"/>
<path d="M14.0804 11.8904L7.26477 14.3156" stroke="black" stroke-width="0.956522" stroke-linecap="round"/>
<path d="M12.913 8.60864L8.60864 11.4782" stroke="black" stroke-width="0.956522" stroke-linecap="round"/>
<path d="M11.2291 4.67082C11.8228 4.67082 12.3041 4.18951 12.3041 3.59579C12.3041 3.00206 11.8228 2.52075 11.2291 2.52075C10.6354 2.52075 10.1541 3.00206 10.1541 3.59579C10.1541 4.18951 10.6354 4.67082 11.2291 4.67082Z" fill="#FC4646" stroke="black" stroke-width="0.956522"/>
<path d="M15.5457 5.24186C16.2939 4.22535 16.2939 2.70912 15.5457 1.69263" stroke="#FC4646" stroke-width="0.840492" stroke-linecap="round"/>
<path d="M17.1342 6.11041C18.2923 4.62825 18.2923 2.32834 17.1342 0.846191" stroke="#FC4646" stroke-width="0.840492" stroke-linecap="round"/>
<path d="M13.9615 4.3841C14.3 3.84461 14.3 3.10638 13.9615 2.56689" stroke="#FC4646" stroke-width="0.840492" stroke-linecap="round"/>
<path d="M6.68811 5.24186C5.93984 4.22535 5.93984 2.70912 6.68811 1.69263" stroke="#FC4646" stroke-width="0.840492" stroke-linecap="round"/>
<path d="M5.09949 6.11041C3.94132 4.62825 3.94132 2.32834 5.09949 0.846191" stroke="#FC4646" stroke-width="0.840492" stroke-linecap="round"/>
<path d="M8.27209 4.3841C7.93361 3.84461 7.93361 3.10638 8.27209 2.56689" stroke="#FC4646" stroke-width="0.840492" stroke-linecap="round"/>
</svg>
